<?xml version="1.0" standalone="no"?>
<!DOCTYPE svg PUBLIC "-//W3C//DTD SVG 20010904//EN"
 "http://www.w3.org/TR/2001/REC-SVG-20010904/DTD/svg10.dtd">
<svg version="1.0" xmlns="http://www.w3.org/2000/svg"
 width="1155.000000pt" height="1280.000000pt" viewBox="0 0 1155.000000 1280.000000"
 preserveAspectRatio="xMidYMid meet">
<metadata>
Created by potrace 1.15, written by Peter Selinger 2001-2017
</metadata>
<g transform="translate(0.000000,1280.000000) scale(0.100000,-0.100000)"
fill="#000000" stroke="none">
<path d="M5725 12790 c-11 -4 -832 -714 -1825 -1578 l-1805 -1569 -3 1252 -2
1253 -31 26 -31 26 -624 0 c-410 0 -632 -4 -645 -10 -52 -28 -49 74 -49 -1874
l0 -1804 -324 -319 c-178 -175 -328 -328 -335 -340 -7 -15 -17 -325 -31 -992
-19 -864 -19 -973 -6 -999 17 -34 65 -57 99 -48 13 3 165 131 338 285 l314
279 5 -3165 5 -3165 28 -24 28 -24 4964 0 c3827 0 4970 3 4990 12 59 27 55
-207 55 3168 l0 3100 288 -230 c158 -127 298 -233 311 -237 32 -8 89 21 101
53 6 16 10 387 10 993 l0 968 -22 31 c-20 27 -5654 4880 -5718 4925 -26 18
-53 21 -85 7z"/>
</g>
</svg>
